# xmcd
#
# Track frame offsets: 
#        150
#        25319
#        49388
#        71060
#        90018
#        111392
#        129632
#        151441
#        171201
#        187340
#        208576
#        223511
#
# Disc length: 3197 seconds
#
# Revision: 0
# Processed by: cddbd v1.5.2PL0 Copyright (c) Steve Scherf et al.
# Submitted via: ExactAudioCopyFreeDBPlugin 1.0
#
DISCID=b20c7b0c
DTITLE=SOULJA - SPIRITS X' TENDED
DYEAR=2008
DGENRE=JPop
TTITLE0=ここにいるよ feat. 青山テルマ
TTITLE1=そばにいるね SoulJa X Yukie
TTITLE2=A Song for You
TTITLE3=CASSIS
TTITLE4=ID
TTITLE5=Sotsugyo ( Indies Version )
TTITLE6=LIBERTANGO ( Pierrot )
TTITLE7=rain
TTITLE8=DOGG POUND
TTITLE9=Lotus
TTITLE10=First Contact ( Indies Version )
TTITLE11=Epilogue -happy-
EXTD=
EXTT0=
EXTT1=
EXTT2=
EXTT3=
EXTT4=
EXTT5=
EXTT6=
EXTT7=
EXTT8=
EXTT9=
EXTT10=
EXTT11=
PLAYORDER=
